<svg xmlns="http://www.w3.org/2000/svg" width="105" height="30" fill="none"><path fill="#435D74" d="M.75.273h103.5v29.454H.75z"/><mask id="a" width="99" height="28" x="3" y="1" maskUnits="userSpaceOnUse" style="mask-type:luminance"><path fill="#fff" d="M101.25 1H3v27.96h98.25V1Z"/></mask><g fill="#F7FBFF" mask="url(#a)"><path d="M45.242 26.602c.233-.228.346-.543.346-.941 0-.502-.186-.874-.553-1.117-.31-.192-.724-.285-1.251-.285h-1.862v4.566h1.148v-1.944l.672.915.766 1.035h1.318l-1.432-1.82c.377-.094.662-.218.848-.41Zm-1.05-.47a.86.86 0 0 1-.455.134h-.672v-1.122h.672c.455 0 .672.175.672.537 0 .197-.067.347-.217.45ZM48.437 24.11c-.657 0-1.215.227-1.68.672-.471.455-.704 1.034-.704 1.737 0 .73.233 1.319.703 1.769.435.444.998.661 1.68.661.678 0 1.252-.217 1.697-.661.47-.445.698-1.04.698-1.769 0-.672-.228-1.251-.677-1.712-.46-.465-1.03-.698-1.717-.698Zm.905 3.397c-.217.258-.523.393-.905.393-.388 0-.688-.135-.905-.404-.191-.243-.295-.563-.295-.956s.098-.724.295-.972c.217-.28.522-.404.905-.404.388 0 .688.135.905.404.201.253.3.579.3.972s-.099.713-.3.967ZM30.473 24.11h-.01c-.647 0-1.21.232-1.67.677-.471.455-.714 1.05-.714 1.753 0 .677.217 1.251.646 1.711.445.47 1.024.704 1.748.704h.016c1.054 0 1.804-.528 2.239-1.593h-1.21a1.401 1.401 0 0 1-.15.28c-.145.216-.43.325-.874.325h-.026c-.714-.01-1.122-.362-1.236-1.055h3.62v-.258c0-.714-.212-1.309-.647-1.79-.44-.496-1.018-.755-1.732-.755Zm0 1.939h-1.21c.186-.621.59-.921 1.21-.931h.016c.656 0 1.05.31 1.189.93h-1.205ZM26.746 27.372V24.26h-1.143v3.155c0 .486.124.858.388 1.09.232.218.568.321 1.013.321h.714v-.89h-.497c-.315 0-.475-.185-.475-.563ZM22.485 24.11h-.01c-.647 0-1.21.232-1.67.677-.476.455-.725 1.05-.725 1.753 0 .677.218 1.251.662 1.711.43.47 1.014.704 1.738.704h.01c1.055 0 1.805-.528 2.24-1.593h-1.21a1.415 1.415 0 0 1-.145.28c-.145.216-.435.325-.88.325h-.015c-.714 0-1.122-.352-1.241-1.055h3.614v-.258c0-.714-.201-1.309-.636-1.79-.44-.496-1.018-.75-1.732-.755Zm0 1.939h-1.21c.186-.621.58-.931 1.21-.931h.01c.657 0 1.05.31 1.19.93h-1.2ZM38.391 25.206h.91v3.62h1.148v-3.62h.9v-.947H38.39v.947ZM35.702 25.159c.579 0 .982.243 1.21.74h1.148c-.124-.57-.393-1.014-.812-1.324-.403-.3-.9-.455-1.5-.455-.698 0-1.267.227-1.711.662-.455.444-.688 1.034-.688 1.763 0 .713.233 1.293.688 1.737.455.455 1.034.678 1.722.678.579 0 1.075-.16 1.494-.47.419-.311.688-.745.812-1.32h-1.148c-.186.502-.564.755-1.158.755-.192 0-.362-.03-.523-.108a1.164 1.164 0 0 1-.579-.522 1.503 1.503 0 0 1-.191-.755c0-.393.108-.724.32-.973.228-.273.528-.408.916-.408ZM72.949 24.11h-.01c-.647 0-1.2.232-1.671.677-.47.455-.714 1.05-.714 1.753 0 .677.218 1.251.657 1.711.434.47 1.024.704 1.738.704h.015c1.055 0 1.805-.528 2.239-1.593h-1.215a1.01 1.01 0 0 1-.135.28c-.15.216-.434.325-.878.325h-.026c-.714 0-1.123-.352-1.236-1.055H75.332v-.258c0-.714-.201-1.309-.646-1.79-.445-.496-1.024-.755-1.737-.755Zm0 1.939h-1.2c.186-.621.59-.931 1.2-.931h.015c.657 0 1.05.31 1.19.93h-1.205ZM86.584 26.602c.227-.228.346-.543.346-.941 0-.502-.186-.874-.563-1.117-.3-.192-.725-.285-1.242-.285h-1.861v4.566h1.148v-1.944l.672.915.755 1.035h1.319l-1.423-1.82c.368-.094.652-.218.849-.41Zm-1.06-.47a.853.853 0 0 1-.445.134h-.667v-1.122h.672c.444 0 .662.186.662.537-.005.197-.072.347-.222.45ZM89.78 24.11h-.01c-.657 0-1.215.227-1.67.672-.471.455-.714 1.034-.714 1.737 0 .73.233 1.319.704 1.769.444.444.997.661 1.68.661h.01c.678 0 1.241-.217 1.686-.661.47-.445.698-1.04.698-1.769 0-.672-.217-1.251-.672-1.712-.456-.465-1.024-.698-1.712-.698Zm.895 3.397c-.217.258-.512.387-.9.393h-.01c-.377 0-.678-.135-.905-.404-.192-.243-.295-.563-.295-.956s.098-.724.295-.972c.227-.28.528-.404.905-.404h.01c.388 0 .678.135.9.404.212.253.31.579.31.972s-.098.713-.31.967ZM95.764 26.602c0 .388-.052.677-.16.879-.15.284-.404.419-.755.419-.554 0-.833-.378-.833-1.143v-2.503h-1.148v2.761c0 .58.15 1.035.445 1.376.32.367.755.553 1.334.553.512 0 .9-.217 1.168-.636v.512h1.092v-4.566h-1.143v2.348ZM100.794 24.704c-.294-.295-.703-.434-1.225-.445h-1.661v4.566h1.144v-1.308h.517c.46-.015.858-.165 1.174-.46.336-.31.502-.714.502-1.21.004-.481-.145-.859-.451-1.143Zm-.904 1.686a.499.499 0 0 1-.321.165c-.057.016-.108.016-.166.016h-.351v-1.386h.362c.052 0 .108 0 .16.015a.57.57 0 0 1 .32.187c.125.144.187.31.187.501-.005.217-.067.378-.191.502ZM80.043 26.276v.9h1.267c-.186.501-.564.755-1.158.755-.192 0-.362-.031-.522-.109a1.162 1.162 0 0 1-.58-.522 1.498 1.498 0 0 1-.191-.755c0-.393.109-.724.326-.972.227-.28.527-.414.92-.414.476 0 .833.166 1.065.502h1.226c-.165-.502-.445-.9-.859-1.169-.377-.243-.848-.378-1.4-.378-.699 0-1.268.228-1.712.662-.455.445-.688 1.035-.688 1.764 0 .713.233 1.293.688 1.737.455.455 1.024.678 1.721.678.755 0 1.345-.228 1.764-.688.414-.445.61-1.014.61-1.727 0-.093-.01-.186-.026-.27h-2.451v.006ZM61.702 24.745c-.3-.377-.714-.59-1.236-.62-.052-.01-.098-.01-.15-.01-.646 0-1.174.232-1.588.703-.413.46-.61 1.034-.61 1.711 0 .678.202 1.252.605 1.712.414.47.947.703 1.614.703.041 0 .082 0 .134-.01.538-.026.957-.243 1.241-.657v.538h1.133v-4.566h-1.143v.496Zm-.336 2.751c-.254.285-.554.43-.9.43h-.01c-.352 0-.662-.145-.916-.43a1.456 1.456 0 0 1-.351-.967c0-.372.119-.687.346-.946.233-.295.538-.43.905-.43h.026c.352.011.662.146.9.42.243.269.367.605.367.982.005.357-.124.667-.367.941ZM55.377 27.926a1.17 1.17 0 0 1-.523-.109 1.255 1.255 0 0 1-.579-.522 1.5 1.5 0 0 1-.186-.755c0-.393.109-.724.31-.972.233-.28.544-.414.931-.414.57 0 .972.243 1.2.74h1.148c-.119-.57-.393-1.014-.812-1.324-.393-.3-.89-.456-1.494-.456-.698 0-1.278.228-1.722.662-.455.445-.678 1.035-.678 1.764 0 .713.228 1.293.678 1.737.46.455 1.034.678 1.722.678.579 0 1.075-.16 1.494-.47.414-.311.688-.746.822-1.32H56.53c-.17.512-.559.76-1.153.76ZM66.562 26.405v-.01c.378-.202.569-.502.569-.92 0-.445-.176-.766-.502-.968-.284-.165-.646-.253-1.117-.253h-1.675v4.566h1.676c.527 0 .946-.083 1.25-.253.394-.212.59-.564.59-1.055-.005-.517-.263-.884-.79-1.107Zm-1.593-1.287h.512c.352.026.523.176.523.455 0 .32-.176.486-.523.522-.041.01-.077.01-.124.01h-.388v-.987Zm.512 2.823h-.512v-1.05h.456l.056.01c.435.011.657.202.657.554-.005.331-.222.48-.657.486ZM69.22 27.372V24.26h-1.143v3.155c0 .486.124.858.388 1.09.233.218.569.321 1.014.321h.713v-.89h-.496c-.316 0-.476-.185-.476-.563ZM17.107 7.35c.186-.419.279-.93.279-1.551 0-1.769-.553-3.036-1.67-3.811-.942-.662-2.364-.988-4.24-.988H3v3.035h7.183c1.928 0 2.895.73 2.895 2.183 0 1.416-.967 2.125-2.895 2.125H4.386v3.035h5.885c1.039 0 1.794.192 2.254.59.419.351.63.879.63 1.577 0 1.458-.966 2.182-2.884 2.182H3v3.035h8.853c1.686 0 3.004-.367 3.95-1.106 1.05-.812 1.578-2.032 1.578-3.666 0-.916-.176-1.681-.512-2.28-.388-.689-1.024-1.294-1.913-1.816 1.075-.89 1.799-1.737 2.15-2.544ZM32.744 7.35c.186-.419.28-.93.28-1.551 0-1.769-.554-3.036-1.66-3.811C30.411 1.326 28.994 1 27.117 1h-8.475v3.035h7.193c1.923 0 2.885.73 2.885 2.183 0 1.416-.967 2.125-2.885 2.125h-5.802v3.035h5.874c1.04 0 1.794.191 2.265.59.414.351.62.879.62 1.577 0 1.458-.967 2.182-2.885 2.182h-7.265v3.035h8.863c1.686 0 3.004-.367 3.945-1.106 1.05-.812 1.578-2.032 1.578-3.666 0-.916-.166-1.681-.512-2.28-.378-.689-1.014-1.294-1.914-1.816 1.076-.89 1.79-1.737 2.141-2.544ZM50.946 1h-4.473L39.48 9.542V1h-3.723v17.762h3.723V9.946l6.749 8.816h4.783l-7.198-9.07L50.945 1ZM55.807 4.837l4.664 13.925h3.977l4.514-13.811-.284 13.811h3.671V1H66.9l-4.525 13.626L57.875 1h-5.502v17.762h3.817l-.383-13.925Z"/></g></svg>