<svg xmlns="http://www.w3.org/2000/svg" width="107" height="14" fill="none"><g fill-rule="evenodd" clip-path="url(#a)" clip-rule="evenodd"><path fill="#F29000" d="M5.677 3.49h9.06V.966H5.384C1.919.966.5 2.006.5 4.805h3.611c0-.912.313-1.315 1.566-1.315Z"/><path fill="#2A2A81" d="M5.76 11.061H4.259a1.247 1.247 0 0 1-.78-.422 1.284 1.284 0 0 1 0-1.68c.2-.232.478-.382.78-.421h10.479V6.014h-9.79S.52 5.802.52 9.894c0 4.094 4.426 3.691 4.426 3.691h9.79v-2.524H5.76ZM36.821 8.665c0-.636-.208-.912-1.064-.912h-2.004c-.877 0-1.399.53-1.399 1.484v1.294c0 .827.564 1.315 1.315 1.315h2.046c.94 0 1.106-.276 1.106-.997h2.505c0 1.803-.605 2.736-3.277 2.736h-3.194c-1.962 0-3.006-1.294-3.006-2.8V8.963c0-1.76 1.065-2.948 3.069-2.948h3.027c2.4 0 3.381.7 3.381 2.65h-2.505Zm19.831-2.651c2.192 0 3.277 1.336 3.277 3.011v1.612c0 1.718-1.127 2.948-3.256 2.948h-3.048c-2.087 0-3.256-1.251-3.256-2.99v-1.57c0-1.654 1.064-3.011 3.256-3.011h3.027Zm-.835 1.739h-1.252c-1.17 0-1.712.488-1.712 1.463v1.23c0 .955.543 1.4 1.712 1.4h1.252c1.106 0 1.607-.403 1.607-1.421V9.237c0-.89-.5-1.484-1.607-1.484Zm-12.608.975h.918l2.526-2.714h2.84l-3.508 3.5 3.82 4.071H46.8l-2.672-3.287h-.918v3.287h-2.505V6.014h2.505v2.714Zm-17.91-2.693h-3.32c-2.337 0-3.005.954-3.005 2.184h2.38v-.233c0-.297.166-.382.96-.382h2.296c.94 0 1.357.149 1.357.912v.234h-4.05c-2.338 0-3.006.742-3.006 1.993v.912c0 1.315.981 1.93 2.505 1.93h7.056V8.686c0-1.463-.815-2.65-3.173-2.65Zm-.543 5.98h-2.338c-.814-.02-1.065-.254-1.065-.827 0-.572.293-.827 1.065-.848h3.549v1.697l-1.211-.021ZM66.985 5.78h1.44L68.3 6.1l-2.526 5.768-.063.149c-.083.127-.187.339-.334.551a2.63 2.63 0 0 1-.793.806 3.059 3.059 0 0 1-.98.36c-.423.06-.849.081-1.274.064h-.209V12.44h.856a1.463 1.463 0 0 0 1.106-.488v-.064l-3.13-5.768-.168-.34h1.628l.063.128 2.421 4.538 1.9-4.538.063-.127h.125Zm27.387 6.66h.209v1.357h-7.995V5.781h7.995v1.357H88.11v1.506h6.053V10H88.11v2.332l6.262.107ZM78.737 7.16V9.47h4.259c.626 0 .98-.085 1.19-.234a.787.787 0 0 0 .208-.636V8.05a.84.84 0 0 0-.23-.636c-.208-.17-.584-.255-1.168-.255h-4.259Zm0 3.71v2.927h-1.524V5.781h5.991c.856 0 1.524.17 1.983.509.46.339.73.911.73 1.654h.022v.912h-.021a1.806 1.806 0 0 1-.626 1.463c-.418.34-1.044.53-1.9.53h-4.655v.021Zm18.954-4.962 3.194 6.086 3.214-6.086.063-.127h2.317v8.016h-1.524v-6.68l-3.486 6.574-.062.106h-1.002l-.063-.106-3.486-6.574v6.68h-1.524V5.781h2.296l.063.127Zm-27.533 7.89h-1.315V5.78h1.523v2.884h.877l3.131-2.82.063-.064h2.213l-.439.381L72.6 9.386l4.008 4.03.396.381H74.98l-.063-.064-3.695-3.71h-.855v3.774h-.21ZM20.017 3.278l-.041.148a.362.362 0 0 1-.116.209.352.352 0 0 1-.218.088.557.557 0 0 1-.293-.084l-.062-.043-.042.043-.125.318c-.021.042-.042.085.083.127.156.08.327.123.501.127a.724.724 0 0 0 .48-.17.768.768 0 0 0 .23-.445l.689-2.375v-.064c0-.042-.042-.063-.084-.063l-.396-.043c-.084 0-.084.043-.105.106l-.27 1.06c-.043.17-.064.298-.147.616h-.02c-.084-.255-.105-.424-.189-.615l-.334-1.06c-.02-.086 0-.107-.125-.086h-.397c-.083.022-.125.022-.125.064V1.2l.73 2.014c.022.022.022.043.063.043l.313.021Zm2.046.848c.063 0 .105 0 .105-.084V2.79h.187c.272 0 .293.17.314.297l.104.53a.92.92 0 0 0 .188.446c.137.09.296.141.459.148.063 0 .083-.042.083-.063l.126-.34c0-.042.02-.085-.042-.085l-.125-.042c-.125-.021-.146-.085-.188-.297l-.063-.36a.62.62 0 0 0-.396-.467.48.48 0 0 0 .334-.424l.062-.318c.042-.212.084-.255.188-.276h.104a.085.085 0 0 0 .042-.106l-.083-.36c-.021-.043-.042-.043-.084-.043a.722.722 0 0 0-.375.106.592.592 0 0 0-.251.467l-.083.381c-.042.276-.147.34-.355.34h-.146V1.178c0-.063-.042-.084-.105-.084h-.417a.083.083 0 0 0-.06.025.086.086 0 0 0-.024.06v2.863c0 .084.042.084.084.084h.417Zm2.589-1.208h.23c.625 0 1.001-.382 1.001-.976a.774.774 0 0 0-.355-.721 1.503 1.503 0 0 0-.668-.127h-.71a.083.083 0 0 0-.058.025.085.085 0 0 0-.025.06v2.863c0 .042 0 .084.084.084h.417c.084 0 .084-.042.084-.084V2.918Zm0-1.358h.188c.166 0 .459 0 .459.424 0 .425-.25.467-.501.467h-.146v-.89Zm2.505-.466c-.063 0-.063.042-.084.063l-.856 2.885c0 .02-.02.084.063.084h.459c.063 0 .063-.02.084-.084l.187-.722h.752l.188.722c.02.084.041.084.083.084h.48c.021 0 .084 0 .084-.042s-.021-.042-.021-.064l-.856-2.842c-.02-.042-.02-.084-.063-.084h-.5Zm.48 1.824h-.564l.188-.764c.049-.188.084-.38.104-.573.02.194.054.385.105.573l.167.764Zm2.087-1.379h.23c.041 0 .083 0 .083-.085v-.276a.085.085 0 0 0-.024-.06.083.083 0 0 0-.06-.024H28.91c-.063 0-.104.02-.104.084v.276c0 .085.041.085.104.085h.23v2.163h-.23c-.063 0-.104 0-.104.085v.255c0 .084.041.084.104.084h1.044c.083 0 .083-.042.083-.084v-.255c0-.042 0-.085-.083-.085h-.23V1.54Zm-.981-1.04a.32.32 0 0 0 .092.226.31.31 0 0 0 .221.093.288.288 0 0 0 .214-.094.298.298 0 0 0 .078-.224.3.3 0 0 0-.18-.274.31.31 0 0 0-.326.063.32.32 0 0 0-.099.21Zm.772 0a.3.3 0 0 0 .176.295.288.288 0 0 0 .117.024.31.31 0 0 0 .221-.093.32.32 0 0 0 .092-.225.32.32 0 0 0-.1-.212.31.31 0 0 0-.213-.085.29.29 0 0 0-.207.087.3.3 0 0 0-.086.21Zm1.065 3.543c0 .084.042.084.083.084h.418c.042 0 .083 0 .083-.084V2.79H32v1.252c0 .084.042.084.084.084h.417c.084 0 .084-.042.084-.084V1.178c0-.042 0-.084-.084-.084h-.417a.083.083 0 0 0-.06.025.086.086 0 0 0-.024.06v1.145h-.835V1.178a.085.085 0 0 0-.024-.06.083.083 0 0 0-.06-.024h-.417a.083.083 0 0 0-.059.025.085.085 0 0 0-.024.06v2.863Zm4.3-.425c-.02-.02-.02-.063-.063-.063l-.104.063a.702.702 0 0 1-.355.106.391.391 0 0 1-.376-.19c-.167-.213-.167-.722-.167-.912 0-.573.042-.849.188-.976a.418.418 0 0 1 .334-.148.56.56 0 0 1 .376.17l.084.042.041-.043.167-.254v-.043c0-.042-.02-.063-.083-.127a1.033 1.033 0 0 0-.647-.212c-.46 0-1.107.255-1.107 1.633 0 .615.126 1.548 1.127 1.548.24.005.474-.07.669-.212.02-.021.062-.042.062-.085a.086.086 0 0 1-.02-.063l-.147-.234h.021Zm1.232-1.293V1.178a.106.106 0 0 0-.038-.061.103.103 0 0 0-.067-.023h-.396c-.042 0-.105.02-.105.084v2.864c0 .042.021.084.105.084h.793c.25.017.5-.05.71-.19a.87.87 0 0 0 .292-.7.881.881 0 0 0-.313-.743 1.113 1.113 0 0 0-.69-.17h-.291Zm0 1.336v-.87h.146c.188 0 .542 0 .542.424 0 .425-.25.446-.5.446h-.188Zm2.38.466c.041 0 .083 0 .083-.084V2.79h.188a.288.288 0 0 1 .234.07.298.298 0 0 1 .1.227l.104.53c.002.168.07.328.188.446a.805.805 0 0 0 .438.148c.084 0 .084-.042.105-.063l.104-.34c.02-.042.02-.085-.042-.085l-.104-.042c-.125-.021-.146-.085-.188-.297l-.084-.36a.578.578 0 0 0-.375-.467.523.523 0 0 0 .334-.424l.041-.318c.042-.212.105-.255.188-.276h.126c.041-.021.041-.064.041-.106l-.104-.318c0-.043-.042-.043-.084-.043a.66.66 0 0 0-.354.106.548.548 0 0 0-.272.467l-.062.382c-.042.276-.167.34-.376.34h-.146V1.177a.085.085 0 0 0-.025-.06.083.083 0 0 0-.059-.024h-.417a.083.083 0 0 0-.06.025.085.085 0 0 0-.024.06v2.863c0 .084.042.084.084.084h.417Zm2.63-3.032c-.063 0-.063.042-.084.063l-.856 2.885c-.02.02-.02.084.063.084h.459c.063 0 .063-.02.084-.084l.187-.722h.73l.21.722c.02.084.02.084.083.084h.48c.021 0 .063 0 .063-.042V4.02l-.856-2.842c-.02-.042-.02-.084-.063-.084h-.5Zm.48 1.824h-.564l.188-.764c.057-.185.085-.378.083-.573h.021c.02.194.054.385.105.573l.167.764Zm4.467-.128h.73c.042 0 .084 0 .084-.085V2.41c0-.043 0-.106-.084-.106h-.73V1.58h.855c.063 0 .084-.042.084-.063l.084-.34c0-.02.02-.042 0-.063h-1.524a.083.083 0 0 0-.06.025.086.086 0 0 0-.024.06v2.842c0 .042 0 .084.084.084h1.398c.042 0 .084 0 .084-.084v-.297c0-.085-.042-.085-.084-.085h-.897v-.87Zm2.296-1.166h.438v2.418c0 .042 0 .084.105.084h.396c.063 0 .105 0 .105-.084V1.178c0-.063-.042-.084-.105-.084h-1.378c-.02 0-.104 0-.104.084v.7c0 .276-.02.849-.042 1.103-.02.255-.146.658-.438.679h-.084c-.041 0-.062.042-.041.085l.104.403c0 .042.042.042.063.042.167-.02.33-.07.48-.148.376-.191.417-.637.46-1.06.04-.425.04-.828.04-.955v-.424.02Zm2.4 1.166h.731c.042 0 .084 0 .084-.085V2.41c0-.043 0-.106-.084-.106h-.73V1.58h.855c.063 0 .084-.042.084-.063l.083-.34a.043.043 0 0 0 0-.063h-1.524a.083.083 0 0 0-.059.025.085.085 0 0 0-.024.06v2.842c0 .042 0 .084.083.084h1.42a.083.083 0 0 0 .059-.024.085.085 0 0 0 .024-.06v-.297a.085.085 0 0 0-.024-.06.083.083 0 0 0-.06-.025h-.918v-.87Zm2.088 1.336c.042 0 .083 0 .083-.084V2.79h.188c.272 0 .292.17.334.297l.105.53c.004.164.063.32.167.446.137.09.295.141.459.148.083 0 .083-.042.104-.063l.105-.34c0-.042.02-.085-.042-.085l-.126-.042c-.125-.021-.146-.085-.187-.297l-.063-.36a.62.62 0 0 0-.397-.467.48.48 0 0 0 .334-.424l.063-.318c.042-.212.084-.255.188-.276h.104a.085.085 0 0 0 .042-.106l-.084-.318c-.02-.043-.041-.043-.083-.043a.722.722 0 0 0-.376.106.591.591 0 0 0-.25.425l-.063.381c-.062.276-.167.34-.375.34h-.147V1.178a.086.086 0 0 0-.024-.06.083.083 0 0 0-.06-.024h-.417c-.062 0-.104.02-.104.084v2.864c0 .084.042.084.104.084h.418Zm2.797-2.502h.543c.041 0 .083 0 .104-.064l.084-.36c.02-.043.041-.106-.042-.106H54.48a.062.062 0 0 0-.044.018.064.064 0 0 0-.019.045v.403c0 .021 0 .064.063.064h.584v2.418c0 .042 0 .084.084.084h.417c.042 0 .084 0 .084-.084V1.624Zm1.628 1.294h.23c.626 0 1.002-.382 1.002-.976a.774.774 0 0 0-.355-.721 1.544 1.544 0 0 0-.668-.127h-.71a.083.083 0 0 0-.059.025.085.085 0 0 0-.024.06v2.863c0 .042 0 .084.083.084h.418c.083 0 .083-.042.083-.084V2.918Zm0-1.358h.188c.167 0 .438 0 .438.424 0 .425-.23.467-.48.467h-.146v-.89Zm3.862 1.06c0-.317-.042-1.59-1.086-1.59-1.043 0-1.085 1.273-1.085 1.59 0 .319.02 1.591 1.085 1.591s1.086-1.272 1.086-1.59Zm-1.086 1.103c-.438 0-.48-.742-.48-1.102 0-.36.063-1.124.48-1.124.418 0 .46.7.46 1.124 0 .424-.021 1.102-.46 1.102Zm2.484-2.1h.564a.083.083 0 0 0 .084-.063l.083-.36c.021-.043.042-.106-.042-.106H61.37a.062.062 0 0 0-.045.018.064.064 0 0 0-.018.045v.403c0 .021 0 .064.063.064h.584v2.418c0 .042 0 .084.084.084h.417c.042 0 .084 0 .084-.084V1.624Zm1.629 1.167h.73c.042 0 .084 0 .084-.085V2.41c0-.043 0-.106-.084-.106h-.73V1.58h.856c.062 0 .083-.042.083-.063l.084-.34a.042.042 0 0 0 .014-.031.042.042 0 0 0-.014-.032h-1.524a.083.083 0 0 0-.06.025.086.086 0 0 0-.024.06v2.842c0 .042 0 .084.084.084h1.42a.083.083 0 0 0 .058-.024.086.086 0 0 0 .025-.06v-.297a.086.086 0 0 0-.025-.06.083.083 0 0 0-.059-.025h-.918v-.87Zm3.34 1.252c.02 0 .083-.022.083-.064 0-.043-.02-.043-.042-.064l-.772-1.4.689-1.23v-.042c0-.042-.042-.042-.084-.064l-.396-.106h-.042a.083.083 0 0 0-.063.043v.063l-.292.616c-.02.084-.063.17-.104.339h-.021a1.76 1.76 0 0 0-.125-.34l-.334-.657c0-.021-.021-.064-.042-.064h-.063l-.438.085c-.042.021-.084.021-.084.064 0 .042.021.042.042.085l.752 1.209-.814 1.42-.042.064c0 .043.063.064.083.064l.418.106h.042c.041 0 .041-.021.062-.043v-.042l.397-.764c.05-.087.091-.18.125-.275h.02c.027.105.07.205.126.297l.376.742c.02.042.02.064.042.064h.083l.397-.128.02.022Zm.438 0c0 .084.042.084.084.084h.417c.042 0 .084 0 .084-.084V2.79h.814v1.252c0 .084.041.084.104.084h.417a.083.083 0 0 0 .06-.024.086.086 0 0 0 .024-.06V1.178a.086.086 0 0 0-.025-.06.083.083 0 0 0-.059-.024h-.417c-.063 0-.104.02-.104.084v1.146h-.814V1.178a.085.085 0 0 0-.025-.06.083.083 0 0 0-.059-.024h-.418a.083.083 0 0 0-.059.025.085.085 0 0 0-.024.06v2.863Zm3.444-2.503h.23c.042 0 .083 0 .083-.085v-.276a.085.085 0 0 0-.024-.06.083.083 0 0 0-.06-.024h-1.043c-.062 0-.104.02-.104.084v.276c0 .085.042.085.104.085h.23v2.163h-.23c-.062 0-.104 0-.104.085v.255c0 .084.042.084.104.084h1.044c.083 0 .083-.042.083-.084v-.255c0-.042 0-.085-.083-.085h-.23V1.54Zm2.13 2.503c0 .042 0 .084.083.084h.417c.084 0 .084-.042.084-.084V1.178a.086.086 0 0 0-.024-.06.083.083 0 0 0-.06-.024h-.417a.083.083 0 0 0-.06.025.086.086 0 0 0-.023.06v1.25a.948.948 0 0 1-.439.107.516.516 0 0 1-.292-.085.43.43 0 0 1-.084-.297v-.976a.085.085 0 0 0-.024-.06.083.083 0 0 0-.06-.024h-.417a.083.083 0 0 0-.059.025.086.086 0 0 0-.024.06V2.26a.71.71 0 0 0 .209.551.95.95 0 0 0 .605.213c.2-.008.398-.051.585-.128v1.146Zm1.356 0c0 .084.042.084.105.084h.417c.042 0 .084 0 .084-.084V2.79h.814v1.252c0 .084.041.084.083.084h.418c.083 0 .083-.042.083-.084V1.178c0-.042 0-.084-.083-.084h-.418a.083.083 0 0 0-.059.025.085.085 0 0 0-.024.06v1.145h-.814V1.178a.085.085 0 0 0-.025-.06.083.083 0 0 0-.059-.024h-.417c-.063 0-.105.02-.105.084v2.864ZM78.3 1.094a.062.062 0 0 0-.045.018.064.064 0 0 0-.018.045l-.877 2.885c0 .02-.02.084.063.084h.48c.042 0 .063-.02.063-.084l.188-.722h.751l.188.722c.02.084.042.084.083.084h.48c.042 0 .084 0 .084-.042s-.02-.042-.02-.064l-.857-2.842c0-.042-.02-.084-.062-.084h-.501Zm.5 1.824h-.584l.188-.764a2.22 2.22 0 0 0 .104-.573c.042.297.084.446.105.573l.188.764Zm4.363 1.208c.042 0 .084 0 .084-.084V2.79h.188a.288.288 0 0 1 .308.173c.017.039.026.081.026.124l.104.53c.002.168.07.328.188.446a.805.805 0 0 0 .46.148c.062 0 .083-.042.083-.063l.125-.34c0-.042 0-.085-.042-.085l-.125-.042c-.125-.021-.146-.085-.188-.297l-.063-.36a.62.62 0 0 0-.396-.467.48.48 0 0 0 .334-.424l.063-.318c.02-.212.083-.255.187-.276h.105a.086.086 0 0 0 .042-.106l-.084-.318a.084.084 0 0 0-.084-.043.722.722 0 0 0-.375.106.673.673 0 0 0-.272.467l-.062.382c-.042.276-.167.34-.376.34h-.146V1.177a.085.085 0 0 0-.025-.06.083.083 0 0 0-.059-.024h-.417a.083.083 0 0 0-.06.025.085.085 0 0 0-.024.06v2.863c0 .084.042.084.084.084h.417Zm3.987-1.505c0-.318-.02-1.591-1.085-1.591s-1.085 1.273-1.085 1.59c0 .319.02 1.591 1.085 1.591s1.085-1.272 1.085-1.59Zm-1.085 1.102c-.438 0-.48-.742-.48-1.102 0-.36.063-1.124.48-1.124s.46.7.46 1.124c0 .424-.022 1.102-.46 1.102Zm2.275-.805h.23a.884.884 0 0 0 .714-.256.913.913 0 0 0 .267-.72.817.817 0 0 0-.334-.721 1.544 1.544 0 0 0-.668-.127h-.73a.083.083 0 0 0-.078.052.086.086 0 0 0-.006.032v2.864a.083.083 0 0 0 .084.085h.438a.083.083 0 0 0 .059-.025.085.085 0 0 0 .024-.06V2.918Zm0-1.358h.188c.167 0 .439 0 .439.424 0 .425-.251.467-.501.467h-.126v-.89Zm2.442.021h.794v2.46c0 .043 0 .085.083.085h.418c.042 0 .083 0 .083-.084V1.178a.085.085 0 0 0-.024-.06.083.083 0 0 0-.06-.024h-1.794a.083.083 0 0 0-.06.025.086.086 0 0 0-.024.06v2.863c0 .042 0 .084.084.084h.417c.084 0 .084-.042.084-.084v-2.46Zm4.154 1.04c0-.318-.041-1.591-1.085-1.591s-1.085 1.273-1.085 1.59c0 .319.02 1.591 1.085 1.591s1.086-1.272 1.086-1.59ZM93.85 3.723c-.438 0-.48-.742-.48-1.102 0-.36.063-1.124.48-1.124.418 0 .46.7.46 1.124 0 .424-.022 1.102-.46 1.102Zm2.255-.805h.25a.884.884 0 0 0 .714-.256.913.913 0 0 0 .267-.72.774.774 0 0 0-.355-.721 1.44 1.44 0 0 0-.668-.127h-.71a.083.083 0 0 0-.058.025.085.085 0 0 0-.025.06v2.863c0 .042 0 .084.084.084h.417c.084 0 .084-.042.084-.084V2.918Zm0-1.358h.208c.167 0 .439 0 .439.424 0 .425-.25.467-.501.467h-.147v-.89Zm2.504-.466a.062.062 0 0 0-.044.018.064.064 0 0 0-.018.045l-.877 2.885c0 .02-.02.084.063.084h.48c.042 0 .062-.02.062-.084l.188-.722h.752l.188.722c.02.084.041.084.083.084h.501c.021 0 .063 0 .063-.042s-.021-.042-.021-.064l-.856-2.842c0-.042-.02-.084-.063-.084h-.5Zm.501 1.824h-.584l.188-.764c.06-.185.095-.378.104-.573h.021c.015.193.043.384.084.573l.187.764Zm2.004.742V1.178a.107.107 0 0 0-.037-.061.103.103 0 0 0-.067-.023h-.418a.084.084 0 0 0-.083.084v2.864c0 .022.009.044.024.06a.084.084 0 0 0 .059.024h1.566v.637c0 .042.021.084.104.084h.376a.085.085 0 0 0 .084-.085V3.746c0-.085-.042-.085-.084-.085h-.188V1.178a.084.084 0 0 0-.083-.084h-.418a.084.084 0 0 0-.083.084V3.66h-.752Zm2.818-2.121h.23c.042 0 .084 0 .084-.085v-.276a.085.085 0 0 0-.084-.084h-1.065a.084.084 0 0 0-.083.084v.276c0 .085.042.085.083.085h.251v2.163h-.251c-.041 0-.083 0-.083.085v.255c0 .084.042.084.083.084h1.065c.084 0 .084-.042.084-.084v-.255c0-.042 0-.085-.084-.085h-.23V1.54Zm1.775-.445a1.137 1.137 0 0 0-.752.233.838.838 0 0 0-.146 1.06.814.814 0 0 0 .397.255.629.629 0 0 0-.355.509l-.042.212c-.063.233-.104.276-.209.297l-.104.042c-.063 0-.063.043-.042.085l.105.34c.02.02.02.063.104.063a.784.784 0 0 0 .438-.148.659.659 0 0 0 .188-.403l.105-.467c.02-.148.062-.297.334-.297h.187V4.02c0 .043 0 .085.084.085h.417c.042 0 .084 0 .084-.085V1.178a.085.085 0 0 0-.025-.06.08.08 0 0 0-.059-.024h-.709Zm.208 1.315h-.208a.37.37 0 0 1-.302-.103.39.39 0 0 1-.116-.3c0-.191.042-.425.418-.425h.208v.828Z"/></g><defs><clipPath id="a"><path fill="#fff" d="M.5 0h106v14H.5z"/></clipPath></defs></svg>