<svg xmlns="http://www.w3.org/2000/svg" width="107" height="24" fill="none"><path fill="#E22824" d="M26.205 13.232V6.508h5.29v1.088h-3.882v1.69h3.589v1.089h-3.59v1.771h4.077v1.089h-5.484v-.002Zm-21.797 2.24V5.246h6.242V6.47H5.84v3.04h4.277v1.195H5.84v3.54h5.179v1.225h-6.61v.002ZM11.59 23.6c-.436 0-.873-.094-1.258-.275L2.88 19.853c-1.235-.433-2.05-1.507-2.05-2.679V.4h21.524v16.775c0 1.172-.815 2.245-2.03 2.67l-7.475 3.48c-.387.18-.821.275-1.258.275Zm-9.825-6.426c0 .786.575 1.507 1.427 1.793l.059.023 7.474 3.482a2.061 2.061 0 0 0 1.726 0l7.545-3.51c.848-.29 1.417-1.008 1.417-1.79V1.336H1.765v15.838ZM20.218 2.443V16.11c0 .832-.583 1.58-1.462 1.876L12.48 20.91c-.278.13-.585.194-.89.194V15.47h1.049v-4.721h5.003v4.72h1.431V5.245h-1.431v4.264h-5.003V5.244H11.59V2.443h8.628Zm12.507 10.79V6.508h1.408v5.636h3.607v1.088h-5.015Zm5.972 0V6.508h5.29v1.088h-3.882v1.69h3.59v1.089h-3.59v1.771h4.076v1.089h-5.484v-.002Zm9.66-1.012c.85 0 1.44-.426 1.771-1.278l1.227.464c-.264.65-.652 1.132-1.162 1.447-.512.318-1.122.475-1.836.475-1.082 0-1.918-.308-2.509-.92-.591-.612-.886-1.468-.886-2.569 0-1.105.284-1.951.855-2.544.57-.592 1.395-.888 2.477-.888.79 0 1.431.158 1.928.474.498.315.844.781 1.045 1.395l-1.24.339a1.448 1.448 0 0 0-.62-.805 1.957 1.957 0 0 0-1.085-.298c-.638 0-1.12.196-1.45.59-.33.396-.493.972-.493 1.733 0 .772.169 1.364.507 1.771.343.41.832.614 1.47.614Zm6.954-4.625v5.636h-1.408V7.596h-2.172V6.508h4.374v1.088h-.794Zm4.14 2.808a1.882 1.882 0 0 0 1.085-.677c.267-.343.401-.748.401-1.22 0-.645-.217-1.14-.654-1.485-.434-.347-1.055-.518-1.855-.518h-1.515v1.094h1.367c.825 0 1.24.322 1.24.968 0 .321-.102.57-.304.75-.205.177-.504.267-.899.267h-1.404v1.093h1.212l1.563 2.554h1.585l-1.821-2.826Zm9.213-.57c0 .7-.138 1.316-.415 1.846-.278.531-.673.938-1.19 1.22-.515.283-1.117.422-1.804.422-1.057 0-1.884-.31-2.484-.933-.6-.623-.9-1.475-.9-2.555 0-1.078.298-1.92.898-2.526.597-.604 1.43-.906 2.496-.906s1.9.305 2.499.917c.602.612.9 1.45.9 2.515Zm8.12 3.394v-2.883h-2.93v2.883h-1.409V6.504h1.408v2.678h2.931V6.504h1.408v6.724h-1.408Zm9.259-3.394c0 .7-.138 1.316-.416 1.846-.278.531-.673.938-1.189 1.22-.516.283-1.117.422-1.805.422-1.057 0-1.884-.31-2.483-.933-.6-.623-.9-1.475-.9-2.555 0-1.078.298-1.92.897-2.526.598-.604 1.431-.906 2.497-.906 1.065 0 1.899.305 2.498.917.602.612.9 1.45.9 2.515Zm3.862 3.49c-.925 0-1.635-.225-2.126-.676-.491-.452-.738-1.1-.738-1.94V6.505h1.408v4.094c0 .53.126.936.38 1.21.253.276.625.413 1.114.413.503 0 .89-.144 1.16-.432.269-.288.405-.7.405-1.239V6.502h1.408v4.134c0 .852-.264 1.514-.79 1.982-.526.47-1.266.706-2.22.706Zm9.746-2.034c0 .658-.245 1.161-.734 1.51s-1.205.522-2.15.522c-.862 0-1.537-.152-2.028-.457-.49-.305-.804-.769-.944-1.39l1.36-.223c.092.357.272.614.539.775.267.161.637.24 1.111.24.984 0 1.475-.298 1.475-.898a.674.674 0 0 0-.169-.472 1.3 1.3 0 0 0-.476-.311c-.205-.084-.6-.184-1.183-.301a10.737 10.737 0 0 1-1.05-.284 3.017 3.017 0 0 1-.535-.253 1.527 1.527 0 0 1-.666-.833 1.97 1.97 0 0 1-.095-.635c0-.608.228-1.074.686-1.396.457-.324 1.121-.485 1.992-.485.834 0 1.46.13 1.879.391.418.261.687.692.808 1.293l-1.364.186c-.071-.29-.213-.507-.426-.654-.215-.146-.522-.22-.924-.22-.852 0-1.278.268-1.278.803 0 .176.046.318.136.43.092.111.225.207.403.285.177.077.539.175 1.084.294.646.136 1.107.263 1.387.38.28.117.5.251.662.406.163.154.287.338.372.553.086.217.128.464.128.744Zm1.036 1.938V6.504h5.289v1.088h-3.881v1.69h3.589v1.089h-3.589v1.771h4.075v1.088h-5.483v-.002Zm-16.08-3.394c0-.725-.17-1.295-.515-1.707-.345-.412-.826-.618-1.446-.618-.63 0-1.118.204-1.46.614-.345.41-.516.98-.516 1.71 0 .738.175 1.321.528 1.745.351.424.832.637 1.44.637.63 0 1.115-.207 1.458-.62.34-.412.512-1 .512-1.761Zm-17.378 0c0-.725-.171-1.295-.516-1.707-.344-.412-.825-.618-1.445-.618-.631 0-1.118.204-1.46.614-.345.41-.517.98-.517 1.71 0 .738.176 1.321.529 1.745.35.424.831.637 1.44.637.63 0 1.115-.207 1.457-.62.34-.412.512-1 .512-1.761Z"/></svg>