<svg xmlns="http://www.w3.org/2000/svg" width="77" height="64" fill="none"><path fill="#0B3A6F" d="m11.344 52.854.422-.948c.526.422 1.361.723 2.167.723 1.023 0 1.453-.366 1.453-.853 0-1.416-3.902-.488-3.902-2.927 0-1.06.845-1.961 2.646-1.961.788 0 1.614.207 2.187.583l-.386.948a3.64 3.64 0 0 0-1.81-.516c-1.014 0-1.427.395-1.427.89 0 1.4 3.895.489 3.895 2.9 0 1.05-.853 1.951-2.654 1.951-1.023-.002-2.046-.32-2.591-.79ZM27.396 46.98l-2.177 6.567h-1.295l-1.624-4.86-1.65 4.86h-1.304L17.17 46.98h1.265l1.634 4.99 1.698-4.99h1.126L24.554 52l1.679-5.02h1.163ZM28.389 46.98h1.22v6.567h-1.22V46.98ZM32.714 48.013h-2.176V46.98h5.573v1.033h-2.176v5.536h-1.221v-5.536ZM36.466 50.265c0-1.962 1.501-3.377 3.517-3.377 1.07 0 1.989.385 2.6 1.098l-.789.74a2.31 2.31 0 0 0-1.753-.77c-1.361 0-2.347.958-2.347 2.309 0 1.35.986 2.309 2.347 2.309a2.28 2.28 0 0 0 1.753-.778l.788.75c-.61.713-1.528 1.098-2.609 1.098-2.006-.002-3.507-1.418-3.507-3.38ZM49.59 46.98v6.567h-1.222v-2.812h-3.397v2.814h-1.22v-6.566h1.22v2.711h3.397v-2.711h1.221v-.003ZM55.275 48.013H53.1V46.98h5.573v1.033h-2.176v5.536h-1.22v-5.536ZM59.025 50.265c0-1.941 1.5-3.377 3.537-3.377 2.036 0 3.537 1.426 3.537 3.377 0 1.95-1.5 3.377-3.537 3.377-2.036 0-3.537-1.436-3.537-3.377Zm5.846 0c0-1.341-.986-2.31-2.309-2.31-1.323 0-2.309.966-2.309 2.31 0 1.343.986 2.309 2.309 2.309 1.323 0 2.309-.968 2.309-2.31ZM5.548 61.409H2.263l-.648 1.52H.357l2.954-6.566h1.2l2.965 6.567H6.2l-.652-1.521Zm-.403-.956-1.238-2.871-1.229 2.871h2.467ZM10.35 62.234l.423-.948c.526.423 1.361.723 2.167.723 1.023 0 1.453-.365 1.453-.853 0-1.416-3.902-.487-3.902-2.926 0-1.061.845-1.962 2.646-1.962.788 0 1.614.208 2.186.583l-.385.948a3.64 3.64 0 0 0-1.81-.515c-1.014 0-1.427.395-1.427.89 0 1.399 3.895.488 3.895 2.9 0 1.05-.853 1.951-2.654 1.951-1.026-.003-2.049-.32-2.591-.79ZM21.064 61.409H17.78l-.648 1.52h-1.258l2.954-6.566h1.2l2.965 6.567h-1.276l-.652-1.521Zm-.405-.956-1.238-2.871-1.228 2.871h2.466ZM25.05 57.384v1.999h3.171v1.03H25.05v2.514h-1.22v-6.566h4.795v1.023h-3.575ZM34.73 61.907v1.023h-4.925v-6.566H34.6v1.023h-3.575v1.708h3.172v1.003h-3.172v1.811h3.705v-.002ZM39.898 57.384v1.999h3.172v1.03h-3.172v2.514h-1.22v-6.566h4.795v1.023h-3.575ZM44.599 60.068v-3.704h1.22v3.66c0 1.35.61 1.933 1.671 1.933s1.661-.583 1.661-1.934v-3.66h1.201v3.705c0 1.914-1.078 2.955-2.871 2.955-1.804 0-2.882-1.041-2.882-2.955ZM53.266 57.394H51.09v-1.033h5.573v1.033h-2.176v5.536h-1.22v-5.536ZM57.404 60.068v-3.704h1.22v3.66c0 1.35.61 1.933 1.672 1.933 1.06 0 1.66-.583 1.66-1.934v-3.66h1.201v3.705c0 1.914-1.078 2.955-2.871 2.955-1.804 0-2.882-1.041-2.882-2.955ZM69.159 62.93l-1.341-1.924c-.085.01-.168.01-.253.01h-1.483v1.914H64.86v-6.566h2.702c1.726 0 2.796.883 2.796 2.336 0 .995-.507 1.726-1.398 2.074l1.51 2.158H69.16v-.002Zm-1.651-5.536h-1.426v2.617h1.426c1.07 0 1.623-.488 1.623-1.314 0-.825-.555-1.303-1.623-1.303ZM76.643 61.907v1.023h-4.926v-6.566h4.796v1.023h-3.575v1.708h3.172v1.003h-3.172v1.811h3.705v-.002Z"/><path fill="#CB007B" d="M13.647 24.046h14.208v-8.855H13.647V9.735h13.715L32.441 1H7.538c-1.196 0-2.124.31-2.79.926-.665.617-.995 1.475-.995 2.576v30.223c0 1.101.333 1.962.996 2.577.663.618 1.593.925 2.789.925h22.459v-8.802H13.648v-5.379h-.002Z"/><path fill="#CB007B" d="m35.213.998-5.05 8.737H40.97l-.017 28.483 10.929.007-.003-28.49h8.093l5.06-8.747-29.82.01ZM72.78 1.9c-.663-.617-1.594-.925-2.79-.925h-2.188l-5.038 8.74v28.502h7.227c1.195 0 2.126-.307 2.789-.925.665-.618.995-1.476.995-2.58V4.48c0-1.101-.332-1.962-.995-2.58Z"/></svg>