<svg xmlns="http://www.w3.org/2000/svg" width="107" height="36" fill="none"><g fill="#00AAE1" clip-path="url(#a)"><path d="M18.373 10.524V.251h-5.13v29.568h5.13V17.541c0-1.003.414-2.423 1.076-3.174.662-.752 1.241-1.086 1.49-1.17.248-.083.993-.417 1.655-.417.579 0 1.24 0 1.655.083.413.084.744.167 1.406.668 0 0 .497.335.745 1.42.248 1.086.166 1.754.166 1.921v12.863h5.13V15.536c0-1.17-.166-2.088-.414-2.84-.083-.25-.165-.418-.248-.585-.083-.083-.165-.334-.331-.584-.414-.585-.993-1.337-1.738-1.838-.993-.668-2.068-1.253-3.144-1.336-.414-.084-.745-.084-1.241-.167-.828-.084-1.904 0-2.731.25-1.407.418-1.986.752-3.145 1.754l-.33.334ZM99.135 11.86V8.604h-5.048V29.82h5.048V17.96c.083-1.838.58-2.34 1.572-3.258.993-.92 2.483-1.17 2.731-1.17.331 0 1.489-.167 2.896.167V8.436c-.993-.25-2.979.167-3.393.334-.413.167-1.324.502-2.234 1.17-.827.668-1.406 1.503-1.572 1.92ZM85.4 25.726c-1.573.752-4.304.752-6.041-1.253-1.573-1.754-1.573-4.176-1.49-4.176h15.308c.166-1.838.083-5.095-1.323-7.517-1.407-2.423-3.393-4.01-6.29-4.678-2.895-.668-5.295-.083-6.785.585-1.49.668-3.227 1.67-4.716 4.427 0 0-1.159 2.088-1.159 5.68 0 3.591.828 5.011.828 5.262 0 .25.827 2.004 2.317 3.424 1.406 1.42 3.64 2.172 4.054 2.256.414.083 2.4.668 5.296.25 2.896-.418 4.882-2.088 5.71-3.09.827-1.003 2.069-2.757 2.151-4.594v-.167h-5.296c-.248 1.42-1.075 2.756-2.565 3.591Zm-4.717-13.364c.827-.501 3.061-1.086 4.964.167 1.904 1.253 2.235 2.59 2.317 3.842h-9.93c.249-2.505 1.738-3.591 2.649-4.009ZM52.63 29.819c-.413-.668-1.158-1.837-1.158-3.007V13.865c-.082-.584.166-2.422-1.737-4.009l-.166-.167c-.993-.752-2.151-1.002-3.144-1.336-.993-.25-2.234-.418-3.806-.418-1.573 0-3.807.418-3.807.418-2.069.5-3.393 1.587-4.137 2.756-.745 1.253-.993 2.84-1.076 4.176h4.965s-.083-1.67.662-2.338c.662-.669 1.738-1.003 3.806-1.086 0 0 1.738-.084 2.73.584.911.669.911 1.17.994 1.671 0 .501-.083 1.086-.166 1.253-.165.167-.33.418-.91.501l-4.551.919c-2.234.417-3.227.668-4.634 1.17-1.49.5-2.73 2.087-3.062 2.756-.33.668-.91 2.255-.579 3.758.331 1.587.993 2.924 2.317 3.843 1.324.918 2.648 1.503 4.468 1.67 1.904.167 3.31-.167 3.724-.334.414-.167 1.82-.501 3.31-1.838v1.921h5.958m-8.027-4.426c-2.068 1.252-4.55.918-4.965.668-.496-.25-1.737-.585-1.903-2.506 0 0-.082-1.42 1.076-2.088 0 0 .662-.418 1.655-.752.91-.25 2.813-.752 3.806-.919a28.671 28.671 0 0 0 2.235-.5v2.505c0 .084.165 2.255-1.904 3.592Z"/><path d="M67.195 8.603v2.005c-1.241-1.336-3.476-2.255-5.462-2.255-1.985 0-4.137.417-5.71 1.67-1.654 1.253-3.144 3.007-3.64 6.181-.497 3.174-.166 6.014 1.49 8.436 1.654 2.34 3.889 3.843 7.364 4.01 3.475.167 5.958-2.172 5.958-2.172v2.756s.33 2.757-3.807 2.924c-4.137.167-4.965-1.17-5.13-2.422h-5.379v.25c.331 3.09 2.566 4.26 2.566 4.26 3.558 2.339 10.591 1.17 10.591 1.17 3.558-.669 4.882-2.757 4.882-2.757.91-1.336.993-2.005 1.076-3.425V8.604h-4.8Zm-1.738 14.784c-1.655 1.337-4.22 1.755-6.371.084 0 0-2.152-1.67-1.986-5.43.165-3.758 2.482-4.76 2.813-4.844.331-.167 3.144-1.503 5.71.669 0 0 .91.751 1.24 1.92.332 1.086.332 2.423.332 2.423v.334c.083 1.838-.083 3.425-1.738 4.845Z"/><path fill-rule="evenodd" d="M8.444 16.037c0 1.086-.828 1.921-1.904 1.921H2.651c-1.075 0-1.903-.835-1.903-1.92V12.11c0-1.085.828-1.92 1.903-1.92h3.89c1.075 0 1.903.835 1.903 1.92v3.926ZM8.444 27.898c0 1.086-.828 1.921-1.904 1.921H2.651c-1.075 0-1.903-.835-1.903-1.921v-3.926c0-1.086.828-1.92 1.903-1.92h3.89c1.075 0 1.903.834 1.903 1.92v3.926Z" clip-rule="evenodd"/></g><defs><clipPath id="a"><path fill="#fff" d="M.5 0h106v36H.5z"/></clipPath></defs></svg>