<svg xmlns="http://www.w3.org/2000/svg" width="107" height="24" fill="none"><path fill="#F1D750" d="m78.676 21.028-.03.012.006-.006.024-.006Z"/><path fill="#191919" d="m93.333 21.171-.556.465v-.006l.556-.459Z"/><path fill="#fff" d="M94.438 21.678h-1.66v-.042l.555-.465.263-.215.496-.417.036-.03h.005v.453h.305v.716ZM79.602 20.724l-.861.28h-.006l-.06.024-.024.006-.024-.066v-.709h.992v.459h-.006l-.011.006Z"/><path fill="#191919" d="M84.089 6.125c.15.334.185.775.095 1.312-.03.197-.083.405-.143.632l-.67 1.871-.86 2.415H80.48l1.535-4.292.096-.376c.078-.411-.066-.626-.448-.638-.18 0-.359.042-.544.137l-.49-.739c.723-.703 1.464-1.043 2.229-1.031.61.012 1.022.25 1.23.71ZM78.734 21.004h.007l.86-.28.012-.006h.006v.59l-.46.37h-2.175l-.078-.066 1.739-.572.03-.012.06-.024ZM93.153 20.95v-2.61h-.388v-.728h1.446l.753 1.753.215.262v.006l-.777.644-.269-.662v.894h-.006l-.035.03-.496.417-.263.215-.556.459v-.68h.376Z"/><path fill="#191919" d="M106.485 16.039v7.212H90.841l.867-.727.46-.381.603-.507h.006v.042h1.661v-.716h-.304v-.459l.269-.226.567 1.4h1.369v-.726h-.359v-1.992l1.852-1.537 4.285-1.383h4.368ZM104.035.749v14.789h-.37V.88l-1.787.244H95.383l-.054 14.253-.317.137V.749h9.023Z"/><path fill="#201600" d="M103.665.88v.244V.88l-1.769.244h-.018l1.787-.244Z"/><path fill="#BC9C61" d="M103.665 15.538v.006l-.448.143.448-.15Z"/><path fill="#191919" d="M103.665 1.124v14.414l-.449.149-1.093.352h-.006l-4.285 1.377V9.058c.066-.036.108-.137.108-.25 0-.113-.042-.22-.108-.25V1.683l3.024-.417h.006l1.016-.143h1.787Z"/><path fill="#201600" d="M103.665.88v.244h-1.769l1.769-.244ZM102.117 16.039l-4.285 1.383v-.006l4.285-1.377ZM101.877 1.124l-1.015.143 1.003-.143h.012Z"/><path fill="#F1D750" d="m101.866 1.124-1.004.143h-.006l-1.404.185-1.62.22v6.885c-.017-.011-.029-.017-.047-.017-.084 0-.15.119-.15.268 0 .143.066.268.15.268.018 0 .03-.006.048-.012v8.358l-1.852 1.537v-.62h.358v-.727h-1.733v.71h.359v1.043l-.753-1.753h-1.446v.728h.388v2.61h-.376v.68l-.006.006-.604.507-.681-.847v-3.29l-.484-.394h-1.93l4.78-1.573h.006l1.153-.519v.018h.37V1.124h6.484Z"/><path fill="#201600" d="m100.856 1.267-3.023.417v-.006l1.619-.226 1.404-.185Z"/><path fill="#BC9C61" d="m99.452 1.452-1.62.226v-.005l1.62-.221Z"/><path fill="#000" d="M97.832 8.557c.066.03.108.132.108.25 0 .114-.042.215-.108.251v-.5Z"/><path fill="#000" d="M97.833 9.058v.006c-.018.006-.03.012-.048.012-.084 0-.15-.125-.15-.268 0-.15.066-.268.15-.268.018 0 .03.006.048.017v.501Z"/><path fill="#fff" d="M96.34 20.95v.728h-1.37l-.567-1.401.777-.644v-.006l.795-.662h.006v1.986h.358Z"/><path fill="#191919" d="M96.338 17.612v.728h-.358v.625h-.006l-.795.662-.215-.262v-1.043h-.358v-.71h1.732Z"/><path fill="#F1D750" d="M95.383 1.124v14.414h-.37v-.024l.316-.137.054-14.253ZM94.133 19.615l.27.662-.27.226v-.888Z"/><path fill="#191919" d="M12.377 21.678v-.71h-.353v-2.616h.353v-.74h-1.71v.734h.365v2.622h-.37v.71h1.715Zm6.244 0v-.71h-.305v-2.605h.305v-.75h-1.763l-.645 2.747-.705-2.748H13.66v.751h.377v2.605h-.365v.71h1.715v-.71h-.316v-1.484l.77 2.194h.658l.788-2.194v1.484h-.262v.71h1.595Zm4.338 0v-.71h-.179l-.83-2.616h.155v-.74h-1.488v.751h.22l-.758 2.617h-.18v.698h1.327v-.71h-.233l.078-.22h.705l.072.22h-.221v.71h1.332Zm4.536-.37v-1.37l-.478-.388h-1.333v.721h.813v.697h-1.279v-2.616h1.29v.417h.987v-.781l-.472-.376H24.68l-.436.34v3.344l.478.382h2.313l.46-.37Zm3 .37v-.71h-.36v-2.616h.36v-.74h-1.716v.734h.365v2.622h-.37v.71h1.72Zm4.845 0v-.727h-.358V18.34h.358v-.728h-1.726v.71h.358v1.043l-.753-1.753h-1.446v.728h.388v2.61h-.376v.728h1.661v-.716h-.31v-1.347l.842 2.063h1.362Zm4.345 0v-.71h-.18l-.836-2.616h.167v-.74h-1.494v.751h.221l-.759 2.617h-.179v.698h1.327v-.71h-.233l.078-.22h.705l.071.22h-.22v.71h1.332Zm4.553-2.844v-1.222h-3.274v1.222h.818v-.482h.317v2.616h-.329v.71h1.685v-.71h-.352v-2.616h.322v.482h.813Zm3 2.844v-.71h-.359v-2.616h.359v-.74h-1.71v.734h.36v2.622h-.371v.71h1.72Zm4.32-.382v-3.29l-.49-.394h-2.05l-.501.406v3.332l.406.328h2.169l.466-.382Zm4.846.382v-.727h-.358V18.34h.358v-.728h-1.727v.71h.359v1.043l-.753-1.753h-1.446v.728h.388v2.61h-.376v.728h1.661v-.716h-.31v-1.347l.842 2.063h1.362Zm6.31 0v-.71h-.352v-2.616h.352v-.74h-1.709v.734h.365v2.622H61v.71h1.714Zm4.859 0v-.727h-.359V18.34h.359v-.728H65.84v.71h.358v1.043l-.753-1.753H64v.728h.389v2.61h-.377v.728h1.661v-.716h-.304v-1.347l.836 2.063h1.369Zm7.654 0v-.71h-.18l-.836-2.616h.168v-.74h-1.494v.751h.22l-.758 2.617h-.18v.698h1.327v-.71h-.233l.078-.22h.705l.072.22h-.221v.71h1.332Zm-3.298 1.567-.012.006H.515V16.04h93.338l-4.78 1.573h-.126l-.078.066h-.012v.006l-1.69.554v-.626h-1.71v.734h.359v.333l-.227.078-1.309.43-1.243.404v-1.24h.317v.483h.813v-1.222h-3.269v1.222h.819v-.482h.316v1.573h-.006l-2.408.787v-.453h-.992v.71h-1.141v-2.617h1.147v.417h.986v-.781l-.484-.376h-2.187l-.442.34v3.344l.394.316-2.737.9-2.234.733ZM92.813.749l-.8 2.336H53.134c-1.84 0-3.854-.06-4.613 1.759-1.105 2.658 3.215 4.381.55 8.518-.036.06-.084.131-.131.197-1.59 2.319-4.637 1.979-7.29 1.979H2.964l.675-2.057h14.843l12.292-.006h11.007c1.954 0 4.954.239 5.886-2.08.98-2.432-2.904-3.815-1.076-7.91C47.716.98 50.34.749 53.076.749h39.737Z"/><path fill="#F1D750" d="m92.168 22.143-.46.381-.867.721H71.93l2.235-.733 2.743-.9.077.066h2.175l.46-.37v-.59l2.409-.793h.006v1.043h-.335v.71h1.685v-.71h-.347v-1.37l1.243-.412 1.309-.43.227-.077v2.29h-.364v.709h1.715v-.71h-.359V18.352h.359v-.114l1.69-.554-.412.334v3.332l.407.328h2.169l.466-.382.681.847Z"/><path fill="#191919" d="M90.5 18.352h-1.069v2.622h1.07v-2.622Zm.987-.346v3.29l-.466.382h-2.17l-.406-.328v-3.332l.413-.334.006-.006h.006l.041-.012.156-.054h1.936l.484.394ZM90.178 6.03c.407.393.556.936.43 1.61l-1.966-.006h-.053c.12-.537-.06-.805-.538-.805-.21 0-.413.065-.616.185a.94.94 0 0 0-.406.494c-.137.34.108.573.747.698.34.083.627.179.866.286.138.06.263.125.365.197.28.178.472.405.585.673.114.268.126.596.042.972a2.28 2.28 0 0 1-.61 1.103c-.316.322-.722.578-1.236.769a4.156 4.156 0 0 1-1.602.274c-.478 0-.902-.107-1.278-.31-.37-.203-.64-.471-.807-.817-.167-.351-.21-.745-.131-1.192l1.882.006c-.108.608.131.906.717.894.25 0 .478-.053.675-.173a.957.957 0 0 0 .424-.483c.108-.28-.06-.488-.508-.625l-.412-.114a3.823 3.823 0 0 1-.675-.25c-.329-.155-.58-.34-.741-.56-.269-.352-.34-.763-.227-1.24.15-.656.532-1.187 1.16-1.598a3.787 3.787 0 0 1 2.126-.602c.783.012 1.375.215 1.787.614Z"/><path fill="#F9D754" d="M90.5 20.974h-1.069v-2.622h1.07v2.622Z"/><path fill="#BC9C61" d="m89.067 17.612-.156.054-.042.012.078-.066h.12Z"/><path fill="#F1D750" d="m88.912 17.666-.043.012.043-.012Z"/><path fill="#201600" d="m88.865 17.678-.008.007v-.007h.008Z"/><path fill="#191919" d="M87.166 20.968v.71h-1.715v-.71h.365V18.68l.986-.321h.006v2.61h.358Z"/><path fill="#201600" d="M87.166 18.238v.114h-.353l.024-.006.329-.108Z"/><path fill="#fff" d="M87.166 17.612v.626l-.328.108-.024.006h-.006l-.006.005-.986.322v-.333h-.359v-.734h1.71Z"/><path fill="#BC9C61" d="m87.166 18.238-.328.108.328-.108ZM86.81 18.352v.007h-.008l.007-.008Z"/><path fill="#fff" d="M84.167 17.612v1.222h-.813v-.482h-.317v1.24l-.006.005-.974.316-.023.012v-1.573h-.317v.482h-.819v-1.222h3.269Z"/><path fill="#191919" d="M83.383 20.968v.71h-1.685v-.71h.335v-1.043l.998-.328h.006v1.371h.346ZM80.63 6.447l.49.74c-.186.089-.371.238-.563.423l-1.727 4.745H76.8l1.53-4.28.095-.382c.084-.429-.066-.644-.448-.644-.126 0-.263.024-.394.078l-.395-.775c.657-.638 1.369-.948 2.127-.936.4.012.718.101.939.292.22.185.346.423.376.74Z"/><path fill="#fff" d="M79.62 17.988v.78h-.986v-.416h-1.148v2.616h1.142l.024.066-.006.006-1.74.572h-.005l-.395-.316v-3.344l.442-.34h2.188l.484.376Z"/><path fill="#191919" d="m77.187 6.352.395.775c-.227.09-.46.244-.7.483l-1.738 4.745h-2.026l.287-.8h.006l.621-1.722 1.56-4.292 1.888-.006-.293.817Z"/><path fill="#BC9C61" d="m76.906 21.612.078.066-.078-.066ZM76.906 21.612l-2.743.9 2.737-.9h.006Z"/><path fill="#fff" d="m73.877 20.205-.191-.626-.203.626h.394Zm1.35.763v.71h-1.332v-.71h.221l-.072-.22h-.705l-.078.22h.234v.71h-1.327v-.698h.18l.758-2.617h-.221v-.75h1.494v.739h-.167l.836 2.616h.18Z"/><path fill="#191919" d="M72.042 7.693c.012-.417-.203-.632-.651-.644a1.201 1.201 0 0 0-.8.275c-.252.19-.497.512-.742.971h2.026l.072-.185a1.61 1.61 0 0 0 .095-.417Zm1.84-.644c.09.507.043 1.073-.148 1.705l-.281.865H69.484c-.065.351-.023.643.126.864.144.22.4.34.76.352.585.017 1.152-.215 1.714-.686l.628 1.145c-.317.37-.723.655-1.213.864a4.125 4.125 0 0 1-1.542.322h-.108c-.597 0-1.1-.15-1.511-.43a2.08 2.08 0 0 1-.831-1.186c-.012-.06-.03-.113-.042-.172-.096-.46-.066-.96.084-1.503l.048-.172c.167-.56.388-1.062.663-1.503.275-.447.61-.828.998-1.156.777-.65 1.637-.966 2.581-.942.568.012 1.028.155 1.38.447.347.286.568.68.664 1.186Z"/><path fill="#201600" d="m73.685 19.58.191.625h-.394l.203-.625Z"/><path fill="#191919" d="m68.367 5.541-.532 1.479h-1.07l-1.123 3.13c-.071.208-.09.369-.053.476.03.113.16.167.376.179.09.006.269-.006.538-.03l-.442 1.532c-.365.12-.735.173-1.118.16-.627-.011-1.063-.196-1.302-.565-.245-.37-.275-.87-.096-1.503l1.195-3.38h-.825l.532-1.478h.825l.621-1.693h2.026l-.615 1.693h1.063Z"/><path fill="#fff" d="M67.573 20.95v.728h-1.368l-.837-2.063v1.347h.305v.716H64.01v-.727h.377V18.34h-.389v-.728h1.447l.752 1.753v-1.043h-.358v-.71h1.733v.728h-.359v2.61h.359Z"/><path fill="#191919" d="M63.426 7.026c.018.19.006.393-.036.613l-1.966-.005h-.054c.12-.537-.06-.805-.544-.805-.203 0-.406.065-.603.185a.924.924 0 0 0-.413.494c-.137.34.114.573.747.698.341.083.628.179.867.286.137.06.257.125.364.197.275.178.473.405.586.673.114.268.125.596.042.972-.096.411-.299.78-.61 1.103-.31.322-.729.578-1.237.769a4.176 4.176 0 0 1-1.601.274c-.472 0-.902-.107-1.279-.31-.37-.203-.64-.471-.806-.817-.168-.351-.21-.745-.132-1.192l1.882.006c-.107.608.132.906.717.894.251 0 .472-.053.676-.173a.957.957 0 0 0 .424-.483c.107-.28-.06-.488-.508-.625l-.418-.114a4.206 4.206 0 0 1-.675-.25c-.323-.155-.574-.34-.735-.56-.27-.352-.347-.763-.234-1.24.078-.328.21-.626.407-.889.191-.268.442-.5.759-.709a3.782 3.782 0 0 1 2.121-.602c.783.012 1.38.215 1.793.614.274.268.43.602.466.995Z"/><path fill="#fff" d="M62.715 20.968v.71h-1.716v-.71h.371v-2.622h-.364v-.734h1.709v.74h-.353v2.616h.352Z"/><path fill="#191919" d="m58.436 5.541-.598.865-4.828 6.968c-.412.614-.83 1.061-1.26 1.335a2.653 2.653 0 0 1-1.447.412c-.233 0-.526-.042-.86-.138l.448-1.514h.227c.25 0 .484-.041.687-.125a1.3 1.3 0 0 0 .562-.477l.4-.566.245-6.76h2.097l-.376 3.815 2.462-3.815h2.24Z"/><path fill="#fff" d="M56.404 20.95v.728h-1.362l-.842-2.063v1.347h.31v.716h-1.66v-.727h.376V18.34h-.389v-.728h1.446l.753 1.753v-1.043h-.358v-.71h1.727v.728h-.353v2.61h.352ZM50.572 18.352h-1.07v2.622h1.07v-2.622Zm.986-.346v3.29l-.466.382h-2.169l-.406-.328v-3.332l.502-.406h2.05l.49.394Z"/><path fill="#191919" d="M50.572 20.974h-1.07v-2.622h1.07v2.622Z"/><path fill="#fff" d="M47.238 20.968v.71h-1.721v-.71h.37v-2.622h-.358v-.734h1.709v.74h-.359v2.616h.359Z"/><path fill="#191919" d="m45.415.749-.764 2.336H27.166L25.93 6.28v.006l.293.823c-.215.072-.424.19-.627.358l-1.799 4.888H21.77l.663-1.813.777-2.14 1.936-5.317H9.556l-3.035 9.276H4.01l3.042-9.276h-2.57L5.253.75h40.162Z"/><path fill="#fff" d="M44.238 17.612v1.222h-.813v-.482h-.322v2.616h.352v.71H41.77v-.71h.329v-2.616h-.317v.482h-.818v-1.222h3.274Z"/><path fill="#191919" d="M41.155 8.295c.084-.375.072-.673-.03-.9-.102-.22-.299-.34-.574-.346-.376-.018-.71.143-1.016.465-.304.328-.555.84-.758 1.544l-.09.37c-.233.936-.054 1.413.562 1.424.794.024 1.386-.631 1.774-1.979l.132-.578Zm2.014-1.186c.101.53.06 1.115-.12 1.764l-.036.138c-.316 1.043-.866 1.89-1.631 2.533-.753.626-1.59.936-2.51.936h-.066c-.591-.006-1.075-.161-1.446-.447-.376-.292-.615-.704-.723-1.228-.107-.525-.071-1.103.114-1.747.042-.143.084-.28.131-.411.329-.93.83-1.681 1.512-2.26.771-.661 1.637-.983 2.6-.971.591.012 1.081.161 1.458.459.376.298.621.703.717 1.234Z"/><path fill="#fff" d="m38.334 20.205-.197-.626-.197.626h.394Zm1.35.763v.71h-1.332v-.71h.221l-.071-.22h-.706l-.077.22h.233v.71h-1.327v-.698h.18l.758-2.617h-.22v-.75h1.493v.739h-.167l.836 2.616h.18Z"/><path fill="#201600" d="m38.137 19.58.197.625h-.394l.197-.625Z"/><path fill="#191919" d="M36.177 6.113c.209.454.197 1.103-.048 1.956l-.102.268-1.434 4.018h-2.032l1.536-4.298c.048-.15.078-.28.09-.406.054-.399-.138-.596-.574-.596a1.137 1.137 0 0 0-.418.066l-.377-.77c.658-.643 1.363-.959 2.116-.94.61.011 1.022.243 1.243.702Z"/><path fill="#fff" d="M35.34 20.95v.728h-1.362l-.843-2.063v1.347h.31v.716h-1.66v-.727h.376V18.34h-.388v-.728h1.446l.753 1.753v-1.043h-.359v-.71h1.727v.728h-.358v2.61h.358Z"/><path fill="#191919" d="m32.82 6.352.376.769c-.221.077-.437.22-.658.417l-1.762 4.817H28.75l2.474-6.814 1.894-.006-.299.817Z"/><path fill="#fff" d="M30.494 20.968v.71h-1.72v-.71h.37v-2.622h-.365v-.734h1.715v.74h-.358v2.616h.358Z"/><path fill="#191919" d="M29.162 6.161c.227.483.215 1.139-.03 1.961l-1.38 3.863-.132.37h-2.026l1.518-4.257c.042-.143.072-.274.09-.405.053-.411-.132-.626-.556-.638a1.277 1.277 0 0 0-.424.054l-.293-.823V6.28c.615-.584 1.243-.876 1.888-.87.67.018 1.118.268 1.345.751Z"/><path fill="#fff" d="M27.495 19.937v1.371l-.46.37h-2.313l-.478-.382v-3.344l.436-.34h2.343l.472.376v.78h-.986v-.416h-1.291v2.616h1.279v-.697h-.813v-.721h1.332l.479.387ZM21.608 20.205l-.197-.626-.197.626h.394Zm1.35.763v.71h-1.332v-.71h.221l-.071-.22h-.705l-.078.22h.233v.71h-1.327v-.698h.18l.759-2.617h-.222v-.75h1.488v.739h-.155l.83 2.616h.18Z"/><path fill="#191919" d="M22.272 6.173c.353.489.442 1.15.27 1.98H20.64c.161-.728-.024-1.092-.544-1.104-.711-.023-1.237.59-1.59 1.842l-.179.644-.053.239c-.138.703.03 1.06.502 1.073a.996.996 0 0 0 .729-.245c.197-.173.346-.4.448-.68l1.9-.005a2.63 2.63 0 0 1-.114.37 3.303 3.303 0 0 1-.58.97c-.346.4-.758.698-1.248.919a3.556 3.556 0 0 1-1.428.304h-.078c-.89-.018-1.506-.346-1.864-.978-.359-.638-.395-1.46-.108-2.468l.048-.149a5.415 5.415 0 0 1 .92-1.824c.4-.53.885-.948 1.434-1.234a3.51 3.51 0 0 1 1.74-.411c.776.018 1.344.268 1.696.757Z"/><path fill="#201600" d="m21.412 19.58.197.625h-.394l.197-.625Z"/><path fill="#fff" d="M18.621 20.968v.71h-1.595v-.71h.262v-1.484l-.788 2.194h-.658l-.77-2.194v1.484h.316v.71h-1.715v-.71h.365v-2.605h-.377v-.75h1.847l.705 2.747.645-2.748h1.763v.751h-.305v2.605h.305Z"/><path fill="#191919" d="M14.15 7.693c.013-.417-.209-.632-.65-.644a1.201 1.201 0 0 0-.801.275c-.251.19-.496.512-.741.971h2.031l.066-.185a1.61 1.61 0 0 0 .096-.417Zm1.841-.644c.09.507.042 1.073-.143 1.705l-.03.072-.257.793h-3.968c-.066.351-.018.643.126.864.143.22.4.34.758.352.586.017 1.154-.215 1.721-.686l.622 1.145c-.317.37-.723.655-1.213.864a4.125 4.125 0 0 1-1.542.322h-.113c-.592 0-1.094-.15-1.506-.43a2.08 2.08 0 0 1-.83-1.186c-.138-.506-.126-1.06.041-1.675l.048-.172c.329-1.121.884-2.01 1.661-2.66.777-.649 1.637-.965 2.575-.941.574.012 1.034.155 1.38.447.36.286.575.68.67 1.186Z"/><path fill="#fff" d="M12.376 20.968v.71h-1.715v-.71h.37v-2.622h-.364v-.734h1.71v.74h-.353v2.616h.352Z"/><path stroke="#201600" stroke-width=".288" d="m102.117 16.039-4.285 1.383M86.838 18.346l.328-.108M85.588 18.757l.227-.078M83.037 19.591l1.243-.405M82.033 19.926l.025-.013M79.62 20.718l2.407-.793M71.929 23.245l2.235-.733 2.737-.9M93.853 16.039h.006l1.153-.519M84.28 19.186l1.31-.43.226-.077M82.027 19.925h.008M92.771 21.636l-.603.507-.46.381-.867.727M93.596 20.956l-.263.215-.556.46M97.833 17.416v.006l-1.852 1.537"/><path stroke="#201600" stroke-width=".288" d="m94.092 20.54-.496.416-.263.215-.556.465v-.006M94.135 20.51h-.008"/></svg>