<svg xmlns="http://www.w3.org/2000/svg" width="246" height="53" fill="none"><circle cx="24" cy="24" r="23.5" fill="#07F0FE" stroke="#fff" transform="matrix(-1 0 0 1 51 2)"/><circle cx="18.374" cy="18.374" r="18.374" fill="#0F0" transform="matrix(-1 0 0 1 45.374 7.626)"/><circle cx="12.747" cy="12.747" r="12.747" fill="#FDFE15" transform="matrix(-1 0 0 1 39.747 13.253)"/><circle cx="12.747" cy="12.747" r="12.747" fill="#FDFE15" transform="matrix(-1 0 0 1 39.747 13.253)"/><circle cx="12.747" cy="12.747" r="12.747" fill="#FDFE15" transform="matrix(-1 0 0 1 39.747 13.253)"/><circle cx="6.901" cy="6.901" r="6.901" fill="#fff" transform="matrix(-1 0 0 1 33.857 19.055)"/><path fill="#fff" d="M66.125 35V17.546h12.58v3.818h-7.841v3h7.193v3.818h-7.193v3h7.806V35H66.126Zm15.207 0-.035-3.546h.41c.255 0 .48-.073.673-.221.199-.148.366-.375.503-.682.142-.307.252-.696.332-1.167.085-.472.14-1.032.162-1.68l.205-5.795h10.772V35h-4.432v-9.58h-2.181l-.205 3.546c-.057 1.113-.216 2.057-.477 2.83-.256.772-.597 1.394-1.023 1.866-.426.466-.92.807-1.483 1.023a5.27 5.27 0 0 1-1.858.315h-1.363Zm22.269.239c-1.398 0-2.602-.267-3.613-.801a5.613 5.613 0 0 1-2.327-2.319c-.54-1.011-.81-2.221-.81-3.63 0-1.353.273-2.535.818-3.546a5.847 5.847 0 0 1 2.31-2.36c.994-.563 2.168-.844 3.52-.844.989 0 1.883.153 2.685.46a5.632 5.632 0 0 1 2.054 1.338c.568.58 1.005 1.284 1.312 2.114.307.83.46 1.764.46 2.803v1.091H98.317v-2.59h7.364a1.812 1.812 0 0 0-.29-.99 1.849 1.849 0 0 0-.741-.672 2.184 2.184 0 0 0-1.049-.247c-.38 0-.73.082-1.048.247a1.98 1.98 0 0 0-.767.664 1.866 1.866 0 0 0-.298.997v2.796c0 .42.088.796.264 1.125.176.33.429.588.758.776.33.187.728.28 1.193.28.324 0 .62-.045.887-.136.273-.09.506-.221.699-.392.193-.176.335-.386.426-.63h4.295c-.147.909-.497 1.699-1.048 2.369-.551.665-1.281 1.182-2.19 1.551-.904.364-1.961.546-3.171.546ZM112.65 35V21.91h4.705v4.67h.818l2.795-4.67h5.387l-4.194 6.613L126.389 35h-5.455l-2.523-4.057h-1.056V35h-4.705Zm14.908-9.58v-3.51h12.682v3.51h-4.159V35h-4.432v-9.58h-4.091Zm15.149 14.49v-18h4.671v2.283h.102c.17-.443.42-.85.75-1.219.33-.375.739-.673 1.227-.895.489-.227 1.057-.34 1.705-.34.863 0 1.684.23 2.463.69.784.46 1.42 1.185 1.909 2.173.494.989.741 2.273.741 3.852 0 1.512-.235 2.765-.707 3.76-.466.993-1.091 1.735-1.875 2.224a4.728 4.728 0 0 1-2.565.732c-.614 0-1.162-.099-1.645-.298a3.792 3.792 0 0 1-1.227-.827 3.813 3.813 0 0 1-.776-1.193h-.068v7.057h-4.705Zm4.603-11.455c0 .636.082 1.187.247 1.653.17.46.409.818.716 1.074.312.25.684.375 1.116.375.432 0 .798-.122 1.099-.367.307-.25.54-.605.699-1.065.165-.466.248-1.023.248-1.67 0-.648-.083-1.202-.248-1.662-.159-.466-.392-.821-.699-1.066-.301-.25-.667-.375-1.099-.375a1.73 1.73 0 0 0-1.116.375c-.307.245-.546.6-.716 1.066-.165.46-.247 1.014-.247 1.662Zm16.088.545 3.648-7.09h4.432V35h-4.432v-7.125L163.398 35h-4.432V21.91h4.432V29Zm23.399-7.09V35h-4.398V21.91h4.398Zm-2.284 5.42v3.51c-.159.103-.435.206-.827.308-.386.096-.795.179-1.227.247a7.515 7.515 0 0 1-1.048.094c-2.148 0-3.821-.381-5.02-1.142-1.199-.762-1.798-2.029-1.798-3.802V21.91h4.363v4.637c0 .397.057.698.171.903.119.204.352.344.699.417.352.074.88.111 1.585.111.426 0 .886-.05 1.38-.153.5-.108 1.074-.273 1.722-.495Zm14.601-.682v3.511h-6.579v-3.511h6.579Zm-4.909-4.739V35h-4.432V21.91h4.432Zm7.671 0V35h-4.398V21.91h4.398Zm6.609 13.296c-.835 0-1.574-.137-2.216-.41a3.336 3.336 0 0 1-1.5-1.26c-.364-.563-.545-1.28-.545-2.149 0-.715.122-1.326.366-1.832a3.294 3.294 0 0 1 1.023-1.253 4.825 4.825 0 0 1 1.525-.741 9.255 9.255 0 0 1 1.892-.333 18.556 18.556 0 0 0 1.765-.204c.448-.085.772-.202.971-.35a.728.728 0 0 0 .299-.605v-.034c0-.34-.131-.602-.393-.784-.261-.182-.596-.273-1.005-.273-.449 0-.816.1-1.1.299-.278.193-.446.491-.502.895h-4.33a4.47 4.47 0 0 1 .758-2.2c.455-.675 1.117-1.215 1.986-1.619.87-.409 1.955-.613 3.256-.613.937 0 1.778.11 2.523.332.744.216 1.378.52 1.9.912.523.386.921.84 1.193 1.364.279.517.418 1.08.418 1.687V35h-4.398v-1.84h-.102a3.772 3.772 0 0 1-.954 1.184c-.37.3-.793.52-1.27.656a5.606 5.606 0 0 1-1.56.205Zm1.534-2.966c.358 0 .693-.074 1.006-.222.318-.148.576-.36.775-.64.199-.278.299-.616.299-1.013v-1.091c-.125.05-.259.1-.401.145a8.23 8.23 0 0 1-.937.239c-.171.033-.35.065-.537.093-.364.057-.662.15-.895.281a1.326 1.326 0 0 0-.512.469 1.179 1.179 0 0 0-.162.614c0 .363.128.642.384.835.256.193.582.29.98.29ZM178.142 20.966V6.364h2.415v14.602h-2.415Zm0-2.796c-.67 0-1.282-.108-1.835-.323a4.23 4.23 0 0 1-1.432-.927 4.193 4.193 0 0 1-.932-1.426 4.892 4.892 0 0 1-.329-1.823c0-.671.109-1.28.329-1.83a4.12 4.12 0 0 1 2.364-2.352 4.93 4.93 0 0 1 1.835-.33h.449v9.011h-.449Zm0-1.886h.267v-5.238h-.267c-.326 0-.615.068-.869.204a1.898 1.898 0 0 0-.642.563 2.543 2.543 0 0 0-.398.829 3.887 3.887 0 0 0-.131 1.029c0 .484.08.926.239 1.323.159.394.392.709.699.944.307.23.674.346 1.102.346Zm2.415 1.887h-.449V9.159h.449c.67 0 1.282.11 1.835.33a4.12 4.12 0 0 1 1.432.926c.401.398.712.873.932 1.426a4.9 4.9 0 0 1 .329 1.83c0 .662-.11 1.27-.329 1.823a4.208 4.208 0 0 1-.932 1.427 4.23 4.23 0 0 1-1.432.926 5.007 5.007 0 0 1-1.835.323Zm0-1.887c.326 0 .615-.066.869-.199.254-.136.468-.324.642-.562a2.64 2.64 0 0 0 .398-.83c.091-.318.136-.659.136-1.022 0-.49-.081-.93-.244-1.324a2.206 2.206 0 0 0-.693-.95c-.303-.234-.673-.351-1.108-.351h-.267v5.238h.267Zm10.535 1.887c-.882 0-1.646-.188-2.29-.563a3.854 3.854 0 0 1-1.483-1.58c-.348-.678-.522-1.464-.522-2.357 0-.902.174-1.69.522-2.364a3.808 3.808 0 0 1 1.483-1.58c.644-.379 1.408-.568 2.29-.568.883 0 1.644.19 2.284.568.644.375 1.14.902 1.489 1.58.348.674.523 1.462.523 2.364 0 .893-.175 1.68-.523 2.357a3.842 3.842 0 0 1-1.489 1.58c-.64.375-1.401.563-2.284.563Zm.012-1.875c.401 0 .736-.114 1.005-.341.269-.232.472-.546.608-.944.14-.397.21-.85.21-1.358 0-.507-.07-.96-.21-1.357-.136-.398-.339-.713-.608-.944-.269-.23-.604-.346-1.005-.346-.406 0-.747.115-1.023.346-.273.231-.479.546-.619.944-.137.397-.205.85-.205 1.357 0 .508.068.96.205 1.358.14.398.346.713.619.944.276.227.617.34 1.023.34Zm6.338 4.977v-12h2.386v1.466h.108c.106-.235.259-.474.46-.716.205-.246.47-.451.796-.614.329-.167.738-.25 1.227-.25a3.28 3.28 0 0 1 1.761.5c.538.33.968.828 1.29 1.494.322.663.483 1.495.483 2.495 0 .973-.157 1.795-.472 2.466-.31.666-.735 1.172-1.272 1.517a3.27 3.27 0 0 1-1.796.511c-.47 0-.869-.078-1.199-.233a2.484 2.484 0 0 1-.801-.585 2.986 2.986 0 0 1-.477-.722h-.074v4.67h-2.42Zm2.369-7.637c0 .52.072.972.216 1.358.144.387.352.688.625.904.272.212.604.318.994.318.394 0 .727-.108 1-.324.273-.22.479-.523.619-.909.144-.39.216-.84.216-1.347 0-.503-.07-.947-.21-1.33-.14-.382-.347-.681-.619-.897-.273-.216-.608-.324-1.006-.324-.394 0-.727.104-1 .313-.269.208-.475.504-.619.886-.144.383-.216.833-.216 1.352Zm7.39-2.46V9.273h7.909v1.903h-2.812V18h-2.307v-6.824h-2.79Zm13.522 6.995c-.898 0-1.671-.182-2.319-.546a3.731 3.731 0 0 1-1.488-1.557c-.349-.674-.523-1.471-.523-2.392 0-.898.174-1.685.523-2.364a3.864 3.864 0 0 1 1.471-1.585c.637-.379 1.383-.568 2.239-.568.576 0 1.112.093 1.608.278.5.182.936.457 1.307.824.375.368.666.83.875 1.387.208.553.312 1.2.312 1.943v.665h-7.369v-1.5h5.091a1.86 1.86 0 0 0-.227-.927 1.632 1.632 0 0 0-.631-.63 1.799 1.799 0 0 0-.926-.233c-.368 0-.693.085-.978.256-.28.166-.5.392-.659.676-.159.28-.24.593-.244.937v1.426c0 .432.08.805.239 1.12.163.314.392.556.687.727.296.17.646.256 1.051.256.269 0 .515-.038.739-.114.223-.076.415-.19.574-.34.159-.152.28-.338.363-.558l2.239.148a3.053 3.053 0 0 1-.699 1.41c-.348.397-.799.707-1.352.93-.549.22-1.184.33-1.903.33Zm13.695-8.898v7.056h1.393v4.478h-2.353V18h-6.67V9.273h2.312v6.824h3.034V9.273h2.284Zm8.37 8.727v-6.83h-1.637c-.443 0-.78.103-1.011.307-.231.205-.345.447-.341.727a.907.907 0 0 0 .33.722c.227.193.56.29 1 .29h2.465v1.636h-2.465c-.747 0-1.392-.113-1.938-.34-.545-.228-.966-.544-1.261-.95a2.338 2.338 0 0 1-.438-1.426c-.004-.568.142-1.066.438-1.494.295-.432.718-.767 1.267-1.006.553-.242 1.204-.363 1.954-.363h3.892V18h-2.255Zm-5.546 0 2.426-4.546h2.313L239.56 18h-2.318Z"/></svg>