<svg xmlns="http://www.w3.org/2000/svg" width="34" height="31" fill="none"><path fill="#fff" d="M10.977 14.722c0 .532-.218 1.042-.605 1.418a2.097 2.097 0 0 1-1.46.587 2.097 2.097 0 0 1-1.46-.587 1.976 1.976 0 0 1-.605-1.418c0-.532.217-1.042.605-1.418a2.097 2.097 0 0 1 1.46-.587c.547 0 1.073.211 1.46.587s.605.886.605 1.418Zm8.26 0c0 .532-.217 1.042-.605 1.418a2.097 2.097 0 0 1-1.46.587 2.097 2.097 0 0 1-1.46-.587 1.977 1.977 0 0 1-.605-1.418c0-.532.218-1.042.605-1.418a2.097 2.097 0 0 1 1.46-.587c.548 0 1.073.211 1.46.587.388.376.605.886.605 1.418Zm6.196 2.005c.547 0 1.073-.211 1.46-.587s.605-.886.605-1.418c0-.532-.218-1.042-.605-1.418a2.097 2.097 0 0 0-1.46-.587c-.548 0-1.073.211-1.46.587a1.976 1.976 0 0 0-.605 1.418c0 .532.217 1.042.604 1.418.388.376.913.587 1.46.587Z"/><path fill="#fff" d="m5.127 30.37.042-.009c3.779-.728 6.087-1.688 7.161-2.216 1.581.411 3.21.617 4.847.614 9.124 0 16.52-6.285 16.52-14.037 0-7.752-7.396-14.036-16.52-14.036C8.053.686.657 6.97.657 14.722c0 3.53 1.534 6.758 4.067 9.224a20.344 20.344 0 0 1-1.082 4.649l-.006.022a21.7 21.7 0 0 1-.504 1.277.526.526 0 0 0 .564.726c.478-.076.956-.16 1.431-.25Zm1.652-6.233c.03-.294-.009-.59-.111-.867a1.998 1.998 0 0 0-.481-.74c-2.19-2.133-3.466-4.864-3.466-7.808 0-6.4 6.204-12.031 14.456-12.031 8.252 0 14.456 5.63 14.456 12.031 0 6.401-6.204 12.032-14.456 12.032a16.984 16.984 0 0 1-4.312-.546 2.12 2.12 0 0 0-1.468.149c-.8.393-2.56 1.143-5.44 1.79.402-1.309.677-2.651.822-4.01Z"/></svg>