<svg xmlns="http://www.w3.org/2000/svg" width="40" height="41" fill="none"><circle cx="20" cy="20.5" r="20" fill="#756ABF"/><path fill="#fff" d="M15.696 12.962a.966.966 0 0 0-.631.125h-.016c-.441.258-.838.584-1.177.967-.282.326-.435.655-.475.972-.023.188-.007.379.048.559l.021.011c.318.932.732 1.83 1.237 2.673a15.72 15.72 0 0 0 2.386 3.262l.028.04.045.033.027.032.033.028a15.944 15.944 0 0 0 3.27 2.398c1.358.739 2.181 1.088 2.676 1.234v.007c.145.045.277.064.41.064.42-.03.82-.202 1.133-.486.382-.339.705-.737.956-1.18v-.008c.237-.447.157-.868-.184-1.154a14.25 14.25 0 0 0-2.211-1.586c-.527-.286-1.062-.113-1.278.176l-.462.583c-.237.29-.667.25-.667.25l-.012.006c-3.21-.819-4.067-4.07-4.067-4.07s-.04-.441.257-.667l.579-.465c.277-.226.47-.76.172-1.286a13.882 13.882 0 0 0-1.583-2.21.88.88 0 0 0-.517-.309l.002.001Zm5.425-1.413a.587.587 0 1 0 0 1.176c1.486 0 2.72.485 3.697 1.416a5.211 5.211 0 0 1 1.15 1.773c.256.661.374 1.368.343 2.075a.588.588 0 1 0 1.176.05 6.3 6.3 0 0 0-.424-2.55 6.396 6.396 0 0 0-1.416-2.18l-.011-.012c-1.212-1.158-2.745-1.748-4.515-1.748Z"/><path fill="#fff" d="M21.08 13.481a.588.588 0 1 0 0 1.176h.02c1.072.076 1.852.433 2.399 1.02.56.604.85 1.355.829 2.284a.588.588 0 1 0 1.175.027c.028-1.22-.364-2.271-1.143-3.11v-.003c-.795-.853-1.887-1.305-3.201-1.393l-.02-.002-.06.001Z"/><path fill="#fff" d="M21.057 15.45a.59.59 0 0 0-.604.787.588.588 0 0 0 .543.387c.492.025.805.174 1.003.372.199.2.347.52.374 1.023a.588.588 0 1 0 1.173-.063c-.038-.705-.259-1.328-.711-1.786-.455-.459-1.075-.682-1.778-.72Z"/><path fill="#fff" fill-rule="evenodd" d="M14.641 8.474a26.035 26.035 0 0 1 11.36 0l.398.088a6.059 6.059 0 0 1 4.551 4.424c.95 3.74.95 7.66 0 11.401A6.059 6.059 0 0 1 26.4 28.81l-.4.088a26.03 26.03 0 0 1-7.143.587l-3.118 2.79a.882.882 0 0 1-1.458-.511l-.516-3.082a6.06 6.06 0 0 1-4.072-4.295c-.95-3.741-.95-7.66 0-11.402a6.059 6.059 0 0 1 4.55-4.423l.4-.088Zm10.975 1.72a24.272 24.272 0 0 0-10.59 0l-.4.09a4.296 4.296 0 0 0-3.225 3.135 21.413 21.413 0 0 0 0 10.534 4.297 4.297 0 0 0 3.226 3.136l.106.024a.882.882 0 0 1 .677.715l.346 2.066 2.2-1.969a.882.882 0 0 1 .65-.223c2.35.166 4.711-.01 7.01-.523l.399-.09a4.296 4.296 0 0 0 3.226-3.136 21.42 21.42 0 0 0 0-10.534 4.296 4.296 0 0 0-3.226-3.136l-.399-.09Z" clip-rule="evenodd"/></svg>